<svg xmlns="http://www.w3.org/2000/svg" xmlns:xlink="http://www.w3.org/1999/xlink" width="2543.047" height="819.143" viewBox="0 0 2543.047 819.143">
  <defs>
    <clipPath id="clip-path">
      <rect id="Rectangle_52" data-name="Rectangle 52" width="2519.047" height="731.676" fill="none"/>
    </clipPath>
  </defs>
  <g id="Abstract_stripes_her" data-name="Abstract stripes her" transform="translate(2517.512 819.143) rotate(-178)" opacity="0.4">
    <g id="Group_63" data-name="Group 63" clip-path="url(#clip-path)">
      <path id="Path_84" data-name="Path 84" d="M12.467,140.41C250.132,435.7,765.073,235.324,1019.714,346.057s260.3-118.642,537.575-255.739,809.193-76.46,809.193-76.46" transform="translate(132.479 0.25)" fill="none" stroke="#3bffc3" stroke-width="1"/>
      <path id="Path_85" data-name="Path 85" d="M2372.321,23.577S2107.135-12.757,1866.1,24.96c-108.316,16.948-211.838,46.259-293.6,90.389-45.819,24.731-85.462,49.493-122.288,72.631-151.3,95.062-186.983,212.16-343.289,187.685-22.978-3.6-47.782-11.335-75.676-22.073C899.969,303.061,712.919,324.711,518.3,321.33c-198.209-3.723-391.369-12.273-506.308-155.079" transform="translate(127.402 3.926)" fill="none" stroke="#42fec5" stroke-width="1"/>
      <path id="Path_86" data-name="Path 86" d="M2378.159,33.258s-276.553-43.63-510.079,4.385c-105.574,21.708-202.561,56.845-280.365,102.7-43.857,25.848-83.1,48.874-122.733,68.354-158.318,77.812-181.51,190.574-345.627,171.951-23.5-2.666-48.468-10.068-76.57-19.555-136.225-45.986-319.226-24.542-519.293-30.92-204.994-7.053-401.63-1.025-511.972-138.119" transform="translate(122.326 7.572)" fill="none" stroke="#48fdc7" stroke-width="1"/>
      <path id="Path_87" data-name="Path 87" d="M2384,42.855S2095.974-7.96,1870.065,50.243c-102.89,26.51-193.3,67.47-267.133,115.011-41.911,26.986-80.434,48.235-123.178,64.075-164.185,60.844-175.917,168.853-347.966,156.219-24-1.763-49.2-8.765-77.464-17.037-141.376-41.371-320.122-20.2-525.636-29.576C316.909,328.55,116.8,349.157,11.049,217.775" transform="translate(117.245 11.185)" fill="none" stroke="#4ffcca" stroke-width="1"/>
      <path id="Path_88" data-name="Path 88" d="M2389.837,52.326s-299.6-57.869-517.793,10.392c-100.259,31.366-184.058,78.139-253.9,127.32-39.976,28.148-77.489,47.661-123.621,59.8C1325.5,294.3,1324.287,396.823,1144.217,390.32c-24.49-.884-49.962-7.424-78.357-14.519-146.715-36.661-321.048-15.432-531.982-28.234-218.593-13.266-422.155,21.47-523.3-104.2" transform="translate(112.17 14.754)" fill="none" stroke="#55fbcc" stroke-width="1"/>
      <path id="Path_89" data-name="Path 89" d="M2395.675,61.366S2084.432-3.4,1874.025,74.761c-97.672,36.284-174.822,88.86-240.669,139.629-38.052,29.339-74.326,47.224-124.066,55.521-173.067,28.868-164.84,135.459-352.645,124.753-24.925-1.422-50.759-6.043-79.251-12-152.216-31.831-321.956-11.027-538.327-26.89C313.676,339.246,106.651,388.488,10.1,268.532" transform="translate(107.094 18.134)" fill="none" stroke="#5cface" stroke-width="1"/>
      <path id="Path_90" data-name="Path 90" d="M2401.515,70.74s-322.94-71.5-525.507,16.4c-95.115,41.273-165.585,99.634-227.437,151.94-36.133,30.556-73.705,35.071-124.51,51.243-167.744,53.395-158.707,102.829-354.984,109.019-25.448.8-51.583-4.623-80.145-9.484-157.851-26.865-322.863-6.634-544.67-25.548-232.188-19.8-442.679,43.966-534.631-70.279" transform="translate(102.017 21.714)" fill="none" stroke="#62f9d0" stroke-width="1"/>
      <path id="Path_91" data-name="Path 91" d="M2407.353,79.761s-334.658-78.06-529.364,19.4c-92.575,46.338-156.342,110.465-214.206,164.251-34.215,31.8-69.423,33.75-124.953,46.964-174.33,41.489-152.9,80.546-357.323,93.286-25.923,1.615-52.425-3.163-81.038-6.966-163.6-21.741-323.771-2.255-551.017-24.2C310.466,349.41,96.511,427.705,9.157,319.173" transform="translate(96.941 25.153)" fill="none" stroke="#69f8d3" stroke-width="1"/>
      <path id="Path_92" data-name="Path 92" d="M2413.192,88.678s-346.366-84.436-533.221,22.4c-90.039,51.482-147.084,121.352-200.974,176.56-32.3,33.085-64.954,33.029-125.4,42.687-181.116,28.938-147.1,58.133-359.661,77.553-26.4,2.411-53.282-1.667-81.932-4.448-169.431-16.45-324.677,2.112-557.361-22.861-245.782-26.38-463.2,66.461-545.959-36.361" transform="translate(91.863 28.577)" fill="none" stroke="#6ff7d5" stroke-width="1"/>
      <path id="Path_93" data-name="Path 93" d="M2419.031,96.458s-358.037-90.637-537.078,25.407c-87.489,56.705-137.8,132.3-187.743,188.871-30.364,34.4-60.908,47.452-125.842,38.408-186.619-25.991-141.3,35.6-362,61.82-26.875,3.192-54.173-4.028-82.826-1.931-175.176,12.827-325.582,6.471-563.7-21.519-252.578-29.687-473.465,77.709-551.624-19.4" transform="translate(86.785 31.466)" fill="none" stroke="#76f6d7" stroke-width="1"/>
      <path id="Path_94" data-name="Path 94" d="M2424.871,102.674S2055.228,6,1883.935,131.084c-84.911,62-128.486,143.3-174.511,201.182-28.418,35.741-57.636,47.978-126.287,34.131-190.232-38.369-135.521,12.959-364.34,46.086-27.354,3.959-55.2-2.512-83.719.587C954.963,432.648,808.591,423.889,565.028,392.9,305.658,359.891,81.3,481.852,7.739,390.456" transform="translate(81.708 33.605)" fill="none" stroke="#7cf5d9" stroke-width="1"/>
      <path id="Path_95" data-name="Path 95" d="M2430.708,106.628S2049.553,4.065,1885.916,138.04c-82.29,67.374-119.132,154.351-161.28,213.493-26.449,37.114-54.454,48.64-126.73,29.852-194.1-50.452-129.771-9.786-366.68,30.354-27.836,4.716-56.224-.905-84.613,3.1-185.072,26.14-327.39,15.157-576.4-18.833C304.055,359.679,76.23,496.216,7.266,410.532" transform="translate(76.632 34.641)" fill="none" stroke="#83f4dc" stroke-width="1"/>
      <path id="Path_96" data-name="Path 96" d="M2436.548,110.261S2043.99,1.931,1887.9,144.676c-79.612,72.805-109.728,165.449-148.047,225.8-24.454,38.515-51.372,49.412-127.175,25.575-198.23-62.335-124.051-32.627-369.019,14.62-28.321,5.462-57.228.785-85.507,5.622-190.065,32.517-328.291,19.489-582.739-17.489C302.458,359.14,71.16,510.259,6.793,430.288" transform="translate(71.554 35.541)" fill="none" stroke="#89f3de" stroke-width="1"/>
      <path id="Path_97" data-name="Path 97" d="M2442.387,113.62S2038.551-.374,1889.88,151.039c-76.871,78.288-100.269,176.581-134.817,238.113-22.422,39.938-48.386,50.267-127.62,21.3-202.621-74.086-118.367-55.552-371.357-1.112-28.811,6.2-58.209,2.546-86.4,8.14C974.573,456.193,840.5,441.291,580.6,401.33,300.859,358.318,66.09,524.03,6.321,449.77" transform="translate(66.476 36.325)" fill="none" stroke="#8ff3e0" stroke-width="1"/>
      <path id="Path_98" data-name="Path 98" d="M2448.225,116.749S2033.243-2.835,1891.861,157.171c-74.06,83.814-90.751,187.745-121.584,250.424-20.357,41.381-45.5,51.185-128.064,17.019-207.255-85.762-112.723-78.557-373.7-16.846-29.3,6.929-58.509,7.968-87.294,10.658-204.878,19.145-330.088,28.132-595.429-14.8C299.263,357.258,61.019,537.569,5.848,469.023" transform="translate(61.4 37.008)" fill="none" stroke="#96f2e2" stroke-width="1"/>
      <path id="Path_99" data-name="Path 99" d="M2454.064,119.683S2028.07-5.44,1893.843,163.108c-71.173,89.371-81.173,198.927-108.352,262.735-18.248,42.837-42.693,52.146-128.509,12.74-212.113-97.4-107.121-101.631-376.035-32.579-29.8,7.652-59.365,9.658-88.188,13.176-210.679,25.71-330.983,32.442-601.773-13.461C297.672,356,55.949,550.915,5.375,488.08" transform="translate(56.323 37.603)" fill="none" stroke="#9cf1e4" stroke-width="1"/>
      <path id="Path_100" data-name="Path 100" d="M2459.9,122.451S2023.029-8.184,1895.824,168.878C1827.612,263.825,1824.29,379,1800.7,443.924c-16.094,44.3-39.965,53.136-128.952,8.463-217.171-109.023-101.559-124.771-378.375-48.313-30.3,8.37-60.21,11.365-89.082,15.693C987.882,452.21,872.417,456.516,596.176,407.65c-300.1-53.085-545.3,156.443-591.274,99.32" transform="translate(51.247 38.12)" fill="none" stroke="#a3f0e7" stroke-width="1"/>
      <path id="Path_101" data-name="Path 101" d="M2465.742,125.085s-447.626-136.139-567.935,49.431c-65.178,100.53-61.833,221.307-81.889,287.355-13.9,45.765-37.308,54.145-129.4,4.186-222.4-120.657-96.039-147.969-380.714-64.047-30.81,9.083-61.047,13.087-89.975,18.211-222.065,39.33-332.66,40.528-614.464-10.775C294.612,352.425,45.808,577.137,4.429,525.727" transform="translate(46.169 38.571)" fill="none" stroke="#a9efe9" stroke-width="1"/>
      <path id="Path_102" data-name="Path 102" d="M2471.58,127.594S2013.32-14.059,1899.788,180.028c-62.075,106.117-52.077,232.489-68.658,299.666-11.655,47.224-34.709,55.165-129.841-.093-227.783-132.31-90.56-171.217-383.052-79.779-31.322,9.792-61.87,14.823-90.869,20.729-227.629,46.365-333.556,44.867-620.807-9.431C293.021,350.766,40.736,590.058,3.957,544.361" transform="translate(41.091 38.957)" fill="none" stroke="#b0eeeb" stroke-width="1"/>
      <path id="Path_103" data-name="Path 103" d="M2477.42,130s-468.788-147.19-575.65,55.436c-58.907,111.7-42.27,243.655-55.425,311.975-9.374,48.677-32.165,56.19-130.286-4.369-233.3-143.994-85.122-194.515-385.393-95.513-31.837,10.5-62.68,16.567-91.762,23.246-233.1,53.536-334.45,49.2-627.152-8.089C291.428,349.006,35.667,602.877,3.484,562.892" transform="translate(36.013 39.286)" fill="none" stroke="#b6eded" stroke-width="1"/>
      <path id="Path_104" data-name="Path 104" d="M2483.258,132.328S2004.039-20.433,1903.75,190.767c-55.68,117.261-32.413,254.8-42.193,324.286-7.05,50.114-29.663,57.214-130.729-8.648C1491.892,350.7,1651.1,288.553,1343.1,395.161c-32.355,11.2-63.479,18.322-92.656,25.764-238.469,60.832-335.346,53.543-633.5-6.745C289.833,347.163,30.6,615.614,3.011,581.34" transform="translate(30.938 39.566)" fill="none" stroke="#bdecf0" stroke-width="1"/>
      <path id="Path_105" data-name="Path 105" d="M2489.1,134.581s-489.566-158.375-583.365,61.443c-52.4,122.808-22.519,265.906-28.96,336.6-4.7,51.533-27.2,58.235-131.174-12.925-244.67-167.459-74.366-241.23-390.072-126.979-32.879,11.9-64.264,20.083-93.548,28.282-243.739,68.241-336.242,57.881-639.841-5.4C288.243,345.248,25.526,628.276,2.538,599.715" transform="translate(25.86 39.8)" fill="none" stroke="#c3ebf2" stroke-width="1"/>
      <path id="Path_106" data-name="Path 106" d="M2494.935,136.771S1995.1-27.265,1907.713,201.217c-49.081,128.336-12.591,276.987-15.728,348.907-2.31,52.932-24.775,59.251-131.618-17.2-250.493-179.245-69.044-264.64-392.411-142.712-33.406,12.6-65.039,21.85-94.443,30.8-248.9,75.755-337.138,62.219-646.186-4.06C286.65,343.269,20.455,640.879,2.065,618.029" transform="translate(20.784 39.992)" fill="none" stroke="#caeaf4" stroke-width="1"/>
      <path id="Path_107" data-name="Path 107" d="M2500.773,138.909s-510.051-169.747-591.08,67.449c-45.721,133.842-2.634,288.032-2.5,361.217.1,54.309-22.374,60.262-132.063-21.481-256.388-191.068-63.757-288.082-394.749-158.445-33.936,13.291-65.8,23.622-95.337,33.317-253.968,83.361-338.032,66.557-652.527-2.716C285.056,341.24,15.383,653.427,1.593,636.291" transform="translate(15.707 40.147)" fill="none" stroke="#d0e9f6" stroke-width="1"/>
      <path id="Path_108" data-name="Path 108" d="M2506.614,141S1986.4-34.509,1911.677,211.451c-42.327,139.322,7.342,299.042,10.735,373.528,2.534,55.663-20,61.263-132.508-25.76C1527.552,356.3,1731.4,247.669,1392.816,385.042c-34.471,13.985-66.547,25.4-96.229,35.835-258.929,91.049-338.929,70.9-658.875-1.374-354.246-80.34-627.4,246.425-636.591,235" transform="translate(10.629 40.267)" fill="none" stroke="#d7e8f9" stroke-width="1"/>
      <path id="Path_109" data-name="Path 109" d="M2512.452,143.051s-530.326-181.324-598.793,73.455c-38.906,144.776,17.336,310.015,23.966,385.838,4.985,56.993-17.644,62.257-132.951-30.037C1536.3,357.493,1751.387,237.262,1405.245,382.4c-35.007,14.678-67.284,27.176-97.124,38.353-263.788,98.811-339.823,75.233-665.22-.03C281.871,337.045,5.244,678.391.647,672.678" transform="translate(5.553 40.355)" fill="none" stroke="#dde7fb" stroke-width="1"/>
      <path id="Path_110" data-name="Path 110" d="M2518.291,145.067s-540.405-187.19-602.651,76.458,178.248,590.57-96.2,363.833-48.1-358.56-401.767-205.644S1015.908,508.9,648.093,421.9.174,690.816.174,690.816" transform="translate(0.476 40.415)" fill="none" stroke="#e4e6fd" stroke-width="1"/>
    </g>
  </g>
</svg>
