<svg xmlns="http://www.w3.org/2000/svg" width="47.397" height="49.103" viewBox="0 0 47.397 49.103">
  <g id="Anonymous" transform="translate(-3.58)">
    <path id="Path_121" data-name="Path 121" d="M50.558,5.665a1.43,1.43,0,0,0-1.011-.419h-.014a3.767,3.767,0,0,1-2.678-1.109,3.8,3.8,0,0,1-1.122-2.706A1.431,1.431,0,0,0,44.3,0H10.254a1.43,1.43,0,0,0-1.43,1.431A3.8,3.8,0,0,1,7.7,4.137,3.767,3.767,0,0,1,5.024,5.246H5.01A1.43,1.43,0,0,0,3.58,6.68,53.44,53.44,0,0,0,7.467,26.6,46.923,46.923,0,0,0,26.521,48.887a1.43,1.43,0,0,0,1.514,0A46.921,46.921,0,0,0,47.09,26.6,53.44,53.44,0,0,0,50.977,6.68,1.43,1.43,0,0,0,50.558,5.665ZM27.278,45.979C10,34.786,6.732,17.9,6.46,7.952a6.611,6.611,0,0,0,3.263-1.79,6.635,6.635,0,0,0,1.81-3.3H43.024a6.635,6.635,0,0,0,1.81,3.3A6.61,6.61,0,0,0,48.1,7.952C47.825,17.9,44.555,34.786,27.278,45.979Z" transform="translate(0 0)" fill="#fff"/>
    <path id="Path_122" data-name="Path 122" d="M72.938,98.687A1.43,1.43,0,0,0,71,99.251l-1.244,2.26h-3.9l-1.4-2.311a1.43,1.43,0,0,0-1.224-.69H57.416a1.43,1.43,0,0,0-1.224.69l-1.4,2.311h-3.9l-1.244-2.26a1.43,1.43,0,1,0-2.506,1.378l1.651,3a1.43,1.43,0,0,0,1.253.741H55.6a1.43,1.43,0,0,0,1.224-.69l1.4-2.311h4.2l1.4,2.311a1.43,1.43,0,0,0,1.224.69H70.6a1.43,1.43,0,0,0,1.253-.741l1.651-3A1.43,1.43,0,0,0,72.938,98.687Z" transform="translate(-33.045 -75.028)" fill="#a29bff"/>
    <path id="Path_123" data-name="Path 123" d="M94.129,142.409l2.776-9.6H91.353Z" transform="translate(-66.851 -101.149)" fill="#a29bff"/>
    <path id="Path_124" data-name="Path 124" d="M40.387,36.868a5.775,5.775,0,0,1,4.982,2.875,1.43,1.43,0,0,0,2.475-1.433,8.615,8.615,0,0,0-14.916,0A1.43,1.43,0,1,0,35.4,39.745,5.775,5.775,0,0,1,40.387,36.868Z" transform="translate(-22.207 -25.902)" fill="#a29bff"/>
    <path id="Path_125" data-name="Path 125" d="M54.348,55.071a.953.953,0,1,0,0,1.907h3.78a.953.953,0,1,0,0-1.907Z" transform="translate(-37.941 -41.944)" fill="#a29bff"/>
    <path id="Path_126" data-name="Path 126" d="M116.723,34.007a8.644,8.644,0,0,0-7.458,4.3,1.43,1.43,0,1,0,2.476,1.433,5.754,5.754,0,0,1,9.964,0,1.43,1.43,0,0,0,2.475-1.433A8.644,8.644,0,0,0,116.723,34.007Z" transform="translate(-80.347 -25.901)" fill="#a29bff"/>
    <path id="Path_127" data-name="Path 127" d="M134.465,56.978a.953.953,0,1,0,0-1.907h-3.78a.953.953,0,1,0,0,1.907Z" transform="translate(-96.081 -41.944)" fill="#a29bff"/>
    <path id="Path_128" data-name="Path 128" d="M96.732,119.574a.953.953,0,1,0,0-1.907H93.8a.953.953,0,1,0,0,1.907Z" transform="translate(-67.986 -89.619)" fill="#a29bff"/>
  </g>
</svg>
