<svg xmlns="http://www.w3.org/2000/svg" width="36" height="36" viewBox="0 0 36 36">
  <g id="chain" transform="translate(-1004 -1871)">
    <g id="Group_93" data-name="Group 93" transform="translate(0 -78)">
      <path id="cain" d="M12,30s-3,3-4.5,3A4.5,4.5,0,0,1,3,28.5c0-1.5,3-4.5,3-4.5l5.864-5.864A7.309,7.309,0,0,0,6,19.5L1.5,24A7.5,7.5,0,0,0,12,34.5L16.5,30A7.341,7.341,0,0,0,18,25.5a7.185,7.185,0,0,0-.141-1.364L12,30ZM28.5,0A7.438,7.438,0,0,0,24,1.5L19.5,6A7.341,7.341,0,0,0,18,10.5a7.185,7.185,0,0,0,.141,1.364L24.005,6s3-3,4.5-3a4.5,4.5,0,0,1,4.5,4.5c0,1.5-3,4.5-3,4.5l-5.865,5.863A7.328,7.328,0,0,0,25.5,18,7.233,7.233,0,0,0,30,16.5L34.5,12a7.5,7.5,0,0,0-6-12Z" transform="translate(1004 1949)" fill="#fff"/>
      <line id="Line_26" data-name="Line 26" y1="8" x2="8" transform="translate(1018 1963)" fill="none" stroke="#a29bff" stroke-linecap="round" stroke-width="3"/>
    </g>
  </g>
</svg>
