<svg xmlns="http://www.w3.org/2000/svg" width="55" height="55" viewBox="0 0 55 55">
  <g id="decentralized" transform="translate(-276 -1890)">
    <path id="network-svgrepo-com" d="M49,0a6,6,0,0,0-5.274,8.86L33.9,18.689a7.947,7.947,0,0,0-9.8,0l-7.669-7.669A3.947,3.947,0,0,0,17,9a4,4,0,1,0-4,4,3.947,3.947,0,0,0,2.019-.567L22.688,20.1a7.949,7.949,0,0,0,0,9.8L10.024,42.562a5.939,5.939,0,1,0,1.25,1.578L24.1,31.311A7.953,7.953,0,0,0,28,32.93V43.09a6,6,0,1,0,2,0V32.93a7.953,7.953,0,0,0,3.9-1.619l7.669,7.669A3.945,3.945,0,0,0,41,41a4,4,0,1,0,4-4,3.947,3.947,0,0,0-2.019.567L35.312,29.9a7.949,7.949,0,0,0,0-9.8l9.665-9.665A6,6,0,1,0,49,0ZM11,9a2,2,0,1,1,2,2A2,2,0,0,1,11,9ZM6,51a4,4,0,1,1,4-4A4,4,0,0,1,6,51Zm27-2a4,4,0,1,1-4-4A4,4,0,0,1,33,49ZM29,31a6,6,0,1,1,6-6A6.006,6.006,0,0,1,29,31ZM47,41a2,2,0,1,1-2-2A2,2,0,0,1,47,41Zm2-31a4,4,0,1,1,4-4A4,4,0,0,1,49,10Z" transform="translate(276 1890)" fill="#fff"/>
    <circle id="Ellipse_13" data-name="Ellipse 13" cx="5" cy="5" r="5" transform="translate(300 1910)" fill="#a29bff"/>
    <circle id="Ellipse_14" data-name="Ellipse 14" cx="3" cy="3" r="3" transform="translate(302 1936)" fill="#a29bff"/>
    <circle id="Ellipse_17" data-name="Ellipse 17" cx="3" cy="3" r="3" transform="translate(322 1893)" fill="#a29bff"/>
    <circle id="Ellipse_15" data-name="Ellipse 15" cx="3" cy="3" r="3" transform="translate(279 1934)" fill="#a29bff"/>
    <circle id="Ellipse_16" data-name="Ellipse 16" cx="1" cy="1" r="1" transform="translate(320 1930)" fill="#a29bff"/>
    <circle id="Ellipse_18" data-name="Ellipse 18" cx="1" cy="1" r="1" transform="translate(288 1898)" fill="#a29bff"/>
  </g>
</svg>
