<svg xmlns="http://www.w3.org/2000/svg" width="30.911" height="45.02" viewBox="0 0 30.911 45.02">
  <g id="lock" transform="translate(0)">
    <g id="Group_76" data-name="Group 76" transform="translate(0)">
      <g id="Group_75" data-name="Group 75">
        <path id="Path_130" data-name="Path 130" d="M107.289,19.357V11.6a11.6,11.6,0,1,0-23.207,0v7.753a15.455,15.455,0,1,0,23.207,0ZM85.875,11.6a9.81,9.81,0,1,1,19.62,0v6.019a15.44,15.44,0,0,0-2.109-1.459V11.6a7.7,7.7,0,1,0-15.4,0v4.56a15.438,15.438,0,0,0-2.109,1.459Zm15.718,0v3.678a15.471,15.471,0,0,0-11.815,0V11.6a5.908,5.908,0,1,1,11.815,0ZM95.685,43.226a13.665,13.665,0,1,1,10.047-22.918h0A13.661,13.661,0,0,1,95.685,43.226Z" transform="translate(-80.23)" fill="#fff"/>
      </g>
    </g>
    <g id="Group_78" data-name="Group 78" transform="translate(6.573 20.716)">
      <g id="Group_77" data-name="Group 77">
        <path id="Path_131" data-name="Path 131" d="M163.866,235.6a8.882,8.882,0,1,0,8.882,8.882A8.892,8.892,0,0,0,163.866,235.6Zm0,15.971a7.089,7.089,0,1,1,7.089-7.089A7.1,7.1,0,0,1,163.866,251.573Z" transform="translate(-154.984 -235.602)" fill="#fff"/>
      </g>
    </g>
    <g id="Group_80" data-name="Group 80" transform="translate(11.997 26.284)">
      <g id="Group_79" data-name="Group 79">
        <path id="Path_132" data-name="Path 132" d="M221.41,302.4l1.944-1.944a.9.9,0,1,0-1.268-1.268l-1.944,1.944-1.944-1.944a.9.9,0,1,0-1.268,1.268l1.944,1.944-1.944,1.944a.9.9,0,0,0,1.268,1.268l1.944-1.944,1.944,1.944a.9.9,0,1,0,1.268-1.268Z" transform="translate(-216.667 -298.924)" fill="#a29bff"/>
      </g>
    </g>
  </g>
</svg>
