<svg xmlns="http://www.w3.org/2000/svg" width="31" height="35" viewBox="0 0 31 35">
  <g id="UI" transform="translate(-182 -1874)">
    <rect id="Rectangle_67" data-name="Rectangle 67" width="15" height="30" rx="1" transform="translate(192 1874)" fill="none"/>
    <g id="Group_92" data-name="Group 92" transform="translate(0 -69.522)">
      <path id="Rectangle_69" data-name="Rectangle 69" d="M2,0H7A0,0,0,0,1,7,0V25a0,0,0,0,1,0,0H2a2,2,0,0,1-2-2V2A2,2,0,0,1,2,0Z" transform="translate(183 1949.522)" fill="none" stroke="#fff" stroke-width="2"/>
      <path id="Rectangle_70" data-name="Rectangle 70" d="M2,0H7A0,0,0,0,1,7,0V25a0,0,0,0,1,0,0H2a2,2,0,0,1-2-2V2A2,2,0,0,1,2,0Z" transform="translate(212 1974.522) rotate(180)" fill="none" stroke="#fff" stroke-width="2"/>
      <rect id="Rectangle_68" data-name="Rectangle 68" width="15" height="32" rx="2" transform="translate(190 1945.522)" fill="none" stroke="#a29bff" stroke-width="2"/>
    </g>
  </g>
</svg>
